<svg width="100.000000" height="40.000000" viewBox="0 0 100 40" fill="none" xmlns="http://www.w3.org/2000/svg" xmlns:xlink="http://www.w3.org/1999/xlink">
	<desc>
			Created with Pixso.
	</desc>
	<defs/>
	<path d="M6.99219 24.2324L0.262939 24.2324L9.40784 0L16.3097 0L25.4547 24.2324L18.7253 24.2324L17.1725 19.9053L8.54517 19.9053L6.99219 24.2324ZM42.0339 0L48.2456 0L48.2456 17.655C48.2456 20.0784 47.6935 21.8438 46.5891 22.9517C45.5078 24.0364 43.7594 24.5786 41.3438 24.5786L33.4066 24.5786C30.991 24.5786 29.231 24.0364 28.1267 22.9517C27.0454 21.8438 26.5048 20.0784 26.5048 17.655L26.5048 0L32.7164 0L32.7164 17.655C32.7164 19.0398 33.4066 19.7322 34.787 19.7322L39.9634 19.7322C41.3438 19.7322 42.0339 19.0398 42.0339 17.655L42.0339 0ZM52.3867 0L66.8806 0C69.2963 0 71.0447 0.553955 72.126 1.66162Q73.7825 3.28857 73.7825 6.92358L73.7825 10.0391C73.7825 11.9546 73.4603 13.4431 72.8162 14.5049C72.1949 15.5664 71.1942 16.2703 69.8138 16.6165L74.1276 24.2324L67.3982 24.2324L63.4297 16.9626L58.5984 16.9626L58.5984 24.2324L52.3867 24.2324L52.3867 0ZM81.5376 24.2324L74.8082 24.2324L83.9532 0L90.8551 0L100 24.2324L93.2708 24.2324L91.7178 19.9053L83.0905 19.9053L81.5376 24.2324ZM67.5708 6.92358Q67.5708 5.88184 67.0498 5.36255Q66.5322 4.84644 65.5002 4.84644L58.5984 4.84644L58.5984 12.1162L65.5002 12.1162Q66.5322 12.1162 67.0498 11.6001Q67.5708 11.0811 67.5708 10.0391L67.5708 6.92358ZM10.098 15.4048L15.6195 15.4048L12.8588 7.26978L10.098 15.4048ZM84.6434 15.4048L90.1649 15.4048L87.4042 7.26978L84.6434 15.4048ZM11.4929 32.2852L13.3622 32.2852L13.3622 33.7854L11.4929 33.7854L11.4929 32.2852ZM84.4375 32.2852L86.3068 32.2852L86.3068 33.7854L84.4375 33.7854L84.4375 32.2852ZM22.1757 37.6426L22.1757 39.8928L20.3064 39.8928L20.3064 32.3923L22.1757 32.3923L22.1757 36.1963L23.0302 36.1963L24.2051 34.2139L26.1812 34.2139L24.579 36.9463L26.1812 39.8928L24.2051 39.8928L22.9768 37.6426L22.1757 37.6426ZM62.8076 39.8928Q62.092 40 61.4404 40C61.0132 40 60.6536 39.8535 60.3616 39.5608C60.0696 39.2678 59.9237 38.8784 59.9237 38.3928L59.9237 32.3923L61.7928 32.3923L61.7928 38.1248C61.7928 38.2319 61.8285 38.3213 61.8997 38.3928C61.9709 38.4641 62.0599 38.5 62.1667 38.5L62.8076 38.5L62.8076 39.8928ZM66.4376 39.8928Q65.722 40 65.0704 40C64.6432 40 64.2836 39.8535 63.9916 39.5608C63.6996 39.2678 63.5537 38.8784 63.5537 38.3928L63.5537 32.3923L65.423 32.3923L65.423 38.1248C65.423 38.2319 65.4585 38.3213 65.5298 38.3928C65.601 38.4641 65.6899 38.5 65.7968 38.5L66.4376 38.5L66.4376 39.8928ZM10.4686 39.8928Q9.4325 40 8.43921 40C7.95496 40 7.56689 39.8535 7.2749 39.5608Q7.172 39.4575 7.09338 39.3384Q6.83691 38.9502 6.83691 38.3928L6.83691 35.6604L6.19604 35.6604L6.19604 34.2139L6.83691 34.2139L7.05054 32.928L8.70618 32.928L8.70618 34.2139L10.0414 34.2139L10.0414 35.6604L8.70618 35.6604L8.70618 38.1248C8.70618 38.2319 8.74182 38.3213 8.81299 38.3928Q8.85608 38.436 8.90784 38.4617Q8.98438 38.5 9.08008 38.5L10.4686 38.5L10.4686 39.8928ZM83.4132 39.8928Q82.3771 40 81.3837 40Q80.8328 40 80.4478 39.7473Q80.3252 39.6667 80.2195 39.5608C79.9275 39.2678 79.7815 38.8784 79.7815 38.3928L79.7815 35.6604L79.1406 35.6604L79.1406 34.2139L79.7815 34.2139L79.9951 32.928L81.6508 32.928L81.6508 34.2139L82.986 34.2139L82.986 35.6604L81.6508 35.6604L81.6508 38.1248C81.6508 38.2319 81.6864 38.3213 81.7576 38.3928C81.8287 38.4641 81.9178 38.5 82.0247 38.5L83.4132 38.5L83.4132 39.8928ZM31.8407 39.7856C30.4663 39.9285 29.2202 40 28.1022 40C27.6179 40 27.2299 39.8535 26.9379 39.5608Q26.8351 39.4575 26.7563 39.3384Q26.5 38.9502 26.5 38.3928L26.5 35.821C26.5 35.2854 26.6495 34.8674 26.9486 34.5674C27.2548 34.2603 27.6749 34.1067 28.209 34.1067L30.3452 34.1067C30.8794 34.1067 31.2959 34.2603 31.595 34.5674C31.9012 34.8674 32.0543 35.2854 32.0543 35.821L32.0543 37.8035L28.3693 37.8035L28.3693 38.2319C28.3693 38.3391 28.4048 38.4285 28.4761 38.5C28.5472 38.5713 28.6362 38.6069 28.743 38.6069C29.448 38.6069 30.4806 38.5535 31.8407 38.4463L31.8407 39.7856ZM36.2693 35.7676C35.8207 35.7676 35.3578 35.8748 34.8807 36.0891L34.8807 39.8928L33.0115 39.8928L33.0115 34.2139L34.6671 34.2139L34.7739 34.9104C35.3864 34.3745 36.0272 34.1067 36.6965 34.1067L37.1772 34.1067L37.1772 35.7676L36.2693 35.7676ZM58.9636 38.2856C58.9636 38.8213 58.8104 39.2429 58.5043 39.55C58.2052 39.8501 57.7886 40 57.2545 40L54.7979 40C54.2638 40 53.8436 39.8501 53.5374 39.55C53.2383 39.2429 53.0887 38.8213 53.0887 38.2856L53.0887 35.821C53.0887 35.2854 53.2383 34.8674 53.5374 34.5674C53.8436 34.2603 54.2638 34.1067 54.7979 34.1067L57.2545 34.1067C57.7886 34.1067 58.2052 34.2603 58.5043 34.5674C58.8104 34.8674 58.9636 35.2854 58.9636 35.821L58.9636 38.2856ZM72.4176 39.7856C71.0432 39.9285 69.7971 40 68.6791 40Q68.1282 40 67.7432 39.7473Q67.6206 39.6667 67.5148 39.5608Q67.412 39.4575 67.3334 39.3386L67.3333 39.3384Q67.0769 38.9502 67.0769 38.3928L67.0769 35.821C67.0769 35.2854 67.2264 34.8674 67.5255 34.5674C67.8317 34.2603 68.2518 34.1067 68.7859 34.1067L70.9221 34.1067C71.4563 34.1067 71.8728 34.2603 72.1719 34.5674C72.4781 34.8674 72.6312 35.2854 72.6312 35.821L72.6312 37.8035L68.9462 37.8035L68.9462 38.2319C68.9462 38.3391 68.9817 38.4285 69.053 38.5Q69.0959 38.543 69.1477 38.5688Q69.2244 38.6069 69.3199 38.6069C70.0249 38.6069 71.0575 38.5535 72.4176 38.4463L72.4176 39.7856ZM93.1462 38.2856C93.1462 38.8213 92.9932 39.2429 92.6869 39.55C92.3878 39.8501 91.9713 40 91.4373 40L88.9805 40C88.4464 40 88.0262 39.8501 87.7201 39.55C87.421 39.2429 87.2715 38.8213 87.2715 38.2856L87.2715 35.821C87.2715 35.2854 87.421 34.8674 87.7201 34.5674C88.0262 34.2603 88.4464 34.1067 88.9805 34.1067L91.4373 34.1067C91.9713 34.1067 92.3878 34.2603 92.6869 34.5674C92.9932 34.8674 93.1462 35.2854 93.1462 35.821L93.1462 38.2856ZM97.2573 35.6604C96.8799 35.6604 96.4526 35.7319 95.9756 35.8748L95.9756 39.8928L94.1063 39.8928L94.1063 34.2139L95.762 34.2139L95.8688 34.7498C96.2034 34.5283 96.5452 34.3674 96.8942 34.2676C97.2502 34.1604 97.5493 34.1067 97.7914 34.1067L98.2721 34.1067Q98.823 34.1067 99.208 34.3594Q99.3306 34.4399 99.4363 34.5461C99.7283 34.8389 99.8743 35.2283 99.8743 35.7141L99.8743 39.8928L98.005 39.8928L98.005 36.0354C98.005 35.9282 97.9695 35.8391 97.8982 35.7676C97.827 35.696 97.738 35.6604 97.6312 35.6604L97.2573 35.6604ZM0.106812 38.3928C1.55237 38.5 2.69177 38.5535 3.5249 38.5535C3.63171 38.5535 3.7207 38.5178 3.79187 38.4463C3.86316 38.375 3.89868 38.2856 3.89868 38.1785L3.89868 37.8035L1.60217 37.8035Q1.05127 37.8035 0.66626 37.5508Q0.543701 37.4702 0.437988 37.364Q0.335083 37.261 0.256348 37.1418Q0 36.7537 0 36.1963L0 35.821Q0 35.2637 0.256348 34.8755Q0.335083 34.7563 0.437988 34.6533Q0.543701 34.5471 0.66626 34.4666Q1.05127 34.2139 1.60217 34.2139L5.23389 34.2139L5.23389 35.6069L2.24304 35.6069C2.13623 35.6069 2.04724 35.6426 1.97607 35.7141C1.90491 35.7854 1.86926 35.8748 1.86926 35.9819C1.86926 36.0891 1.90491 36.1782 1.97607 36.2498C2.04724 36.3213 2.13623 36.3569 2.24304 36.3569L4.16577 36.3569Q4.71667 36.3569 5.10168 36.6096Q5.22424 36.6902 5.33008 36.7961Q5.43286 36.8994 5.5116 37.0186Q5.76794 37.4067 5.76794 37.9641L5.76794 38.3928Q5.76794 38.9502 5.5116 39.3384Q5.43286 39.4575 5.33008 39.5608Q5.22424 39.6667 5.10168 39.7473Q4.71667 40 4.16577 40C2.9054 40 1.55237 39.9285 0.106812 39.7856L0.106812 38.3928ZM19.454 39.7856C18.1223 39.9285 16.9474 40 15.9291 40Q15.3782 40 14.9932 39.7473Q14.8706 39.6667 14.7648 39.5608Q14.662 39.4575 14.5833 39.3384Q14.3269 38.9502 14.3269 38.3928L14.3269 35.9282C14.3269 35.3926 14.4764 34.9746 14.7755 34.6746C15.0817 34.3674 15.5018 34.2139 16.0359 34.2139L19.454 34.2139L19.454 35.6604L16.6234 35.6604C16.3385 35.6604 16.1962 35.8032 16.1962 36.0891L16.1962 38.1785C16.1962 38.2856 16.2317 38.375 16.303 38.4463C16.3741 38.5178 16.4631 38.5535 16.5699 38.5535C17.2108 38.5535 18.1722 38.5 19.454 38.3928L19.454 39.7856ZM37.7108 38.3928C39.1564 38.5 40.2958 38.5535 41.1289 38.5535C41.2357 38.5535 41.3247 38.5178 41.396 38.4463C41.4672 38.375 41.5028 38.2856 41.5028 38.1785L41.5028 37.8035L39.2063 37.8035Q38.6553 37.8035 38.2704 37.5508Q38.1477 37.4702 38.042 37.364C37.75 37.0713 37.604 36.6819 37.604 36.1963L37.604 35.821C37.604 35.3354 37.75 34.946 38.042 34.6533Q38.1477 34.5471 38.2704 34.4666Q38.6553 34.2139 39.2063 34.2139L42.838 34.2139L42.838 35.6069L39.8472 35.6069Q39.7515 35.6069 39.6749 35.645Q39.6232 35.6709 39.5801 35.7141C39.5089 35.7854 39.4733 35.8748 39.4733 35.9819C39.4733 36.0891 39.5089 36.1782 39.5801 36.2498C39.6514 36.3213 39.7404 36.3569 39.8472 36.3569L41.7698 36.3569Q42.3208 36.3569 42.7058 36.6096Q42.8284 36.6902 42.9341 36.7961C43.2261 37.0891 43.3721 37.4785 43.3721 37.9641L43.3721 38.3928C43.3721 38.8784 43.2261 39.2678 42.9341 39.5608Q42.8284 39.6667 42.7058 39.7473Q42.3208 40 41.7698 40C40.5094 40 39.1564 39.9285 37.7108 39.7856L37.7108 38.3928ZM52.3431 39.7856C51.0116 39.9285 49.8365 40 48.8184 40C48.3341 40 47.946 39.8535 47.6541 39.5608C47.3621 39.2678 47.2161 38.8784 47.2161 38.3928L47.2161 35.9282C47.2161 35.3926 47.3656 34.9746 47.6647 34.6746C47.9709 34.3674 48.391 34.2139 48.9252 34.2139L52.3431 34.2139L52.3431 35.6604L49.5126 35.6604C49.2278 35.6604 49.0853 35.8032 49.0853 36.0891L49.0853 38.1785C49.0853 38.2856 49.121 38.375 49.1921 38.4463C49.2633 38.5178 49.3524 38.5535 49.4592 38.5535C50.1001 38.5535 51.0614 38.5 52.3431 38.3928L52.3431 39.7856ZM78.6086 39.7856C77.277 39.9285 76.1021 40 75.0837 40C74.5995 40 74.2114 39.8535 73.9194 39.5608Q73.8168 39.4575 73.738 39.3386L73.7379 39.3384Q73.4816 38.9502 73.4816 38.3928L73.4816 35.9282C73.4816 35.3926 73.6311 34.9746 73.9302 34.6746C74.2363 34.3674 74.6565 34.2139 75.1906 34.2139L78.6086 34.2139L78.6086 35.6604L75.7781 35.6604C75.4932 35.6604 75.3508 35.8032 75.3508 36.0891L75.3508 38.1785C75.3508 38.2856 75.3864 38.375 75.4576 38.4463C75.5288 38.5178 75.6178 38.5535 75.7246 38.5535C76.3655 38.5535 77.3269 38.5 78.6086 38.3928L78.6086 39.7856ZM13.3622 34.4282L13.3622 39.8928L11.4929 39.8928L11.4929 35.8748L10.6919 35.8748L10.6919 34.4282L13.3622 34.4282ZM86.3068 34.4282L86.3068 39.8928L84.4375 39.8928L84.4375 35.8748L83.6365 35.8748L83.6365 34.4282L86.3068 34.4282ZM28.7965 35.446C28.5116 35.446 28.3693 35.5889 28.3693 35.8748L28.3693 36.4641L30.1851 36.4641L30.1851 35.8748C30.1851 35.5889 30.0426 35.446 29.7578 35.446L28.7965 35.446ZM69.3734 35.446C69.0885 35.446 68.9462 35.5889 68.9462 35.8748L68.9462 36.4641L70.762 36.4641L70.762 35.8748C70.762 35.5889 70.6195 35.446 70.3347 35.446L69.3734 35.446ZM57.0944 35.9819C57.0944 35.696 56.9519 35.5532 56.6671 35.5532L55.3853 35.5532C55.1005 35.5532 54.958 35.696 54.958 35.9819L54.958 38.1248C54.958 38.4106 55.1005 38.5535 55.3853 38.5535L56.6671 38.5535C56.9519 38.5535 57.0944 38.4106 57.0944 38.1248L57.0944 35.9819ZM91.277 35.9819C91.277 35.696 91.1345 35.5532 90.8497 35.5532L89.568 35.5532C89.2831 35.5532 89.1407 35.696 89.1407 35.9819L89.1407 38.1248C89.1407 38.4106 89.2831 38.5535 89.568 38.5535L90.8497 38.5535C91.1345 38.5535 91.277 38.4106 91.277 38.1248L91.277 35.9819Z" fill="#07060B" fill-opacity="1.000000" fill-rule="evenodd"/>
</svg>
